# xmcd CD database file generated by Grip 3.3.1
# 
# Track frame offsets:
#       150
#       13008
#       26195
#       38561
#       51623
#       64798
#       78112
#       94286
#       106783
#       118115
#       131591
#       144042
#       155615
#       168965
#       182889
#       195446
#       208011
#       219677
#       231270
#       244986
#       255723
#       271083
#       283593
#       298040
#       311976
# 
# Disc length: 4337 seconds
# 
# Revision: 1
# Processed by: cddbd v1.5.2PL0 Copyright (c) Steve Scherf et al.
# Submitted via: Grip 3.3.1
# 
DISCID=7410ef19
DTITLE=Ernest Tubb - Texas Troubadour - The Early years [CDC) 1944
DYEAR=2008
DGENRE=Country
TTITLE0=I Lost My Ace Of Hearts
TTITLE1=Though The Days Were Only Seven
TTITLE2=With Tears In My Eyes
TTITLE3=Are You Waiting Just for Me
TTITLE4=I'll Get Along Somehow
TTITLE5=Blue Eyed Elaine
TTITLE6=You'll Love Me Too Late
TTITLE7=I'll Never Lose You Though You're Gone
TTITLE8=I'm Too Blue To Worry Over You
TTITLE9=There's Nothing More To Say
TTITLE10=I Hate to See You Go
TTITLE11=I'll Always Be Glad To Have You Back
TTITLE12=Too Late to Worry, Too Blue to Cry
TTITLE13=I'm Wondering How
TTITLE14=Last Night I Dreamed
TTITLE15=This Time We're Really Through
TTITLE16=You May Have Your Picture
TTITLE17=I Ain't Goin' Honky Tonkin' Anymore
TTITLE18=Walking The Floor Over You
TTITLE19=Have You Changed Your Mind
TTITLE20=Just Rollin' On
TTITLE21=You Nearly Lose Your Mind
TTITLE22=I'll Never Cry Over You
TTITLE23=Our Baby's Book
TTITLE24=When the World Has Turned You Down
EXTD=
EXTT0=
EXTT1=
EXTT2=
EXTT3=
EXTT4=
EXTT5=
EXTT6=
EXTT7=
EXTT8=
EXTT9=
EXTT10=
EXTT11=
EXTT12=
EXTT13=
EXTT14=
EXTT15=
EXTT16=
EXTT17=
EXTT18=
EXTT19=
EXTT20=
EXTT21=
EXTT22=
EXTT23=
EXTT24=
PLAYORDER=
